<svg class="border shadow-md dark:border-slate-700" viewBox="0 0 843.92 474.705" style="width: 843.92px; height: 474.705px;" xmlns="http://www.w3.org/2000/svg" preserveAspectRatio="none"><rect class="bg" id="bg" x="0" y="0" width="843.92" height="474.705" fill="#ffffff"/><path d="M 0 -94.941 L 0 -94.94&#10;                L 93.77 -40.94&#10;                L 281.3066666666667 -94.94 L 281.3066666666667 -94.94&#10;                L 420.31 -24.94&#10;                L 562.6133333333333 -94.94 L 562.6133333333333 -94.94&#10;                L 656.38 -47.47&#10;                L 843.9200000000001 -94.94 L 843.9200000000001 -94.94&#10;                L 937.69 -3.94&#10;                L 1125.2266666666667 -94.94  V 474.70 H 0 V -94.94 Z" fill="#B7AA9B"/><path d="M 0 0 L 0 0.00&#10;                L 127.00 54.00&#10;                L 281.3066666666667 0.00 L 281.3066666666667 0.00&#10;                L 401.31 56.00&#10;                L 562.6133333333333 0.00 L 562.6133333333333 0.00&#10;                L 687.61 73.00&#10;                L 843.9200000000001 0.00 L 843.9200000000001 0.00&#10;                L 964.92 47.47&#10;                L 1125.2266666666667 0.00  V 474.70 H 0 V 0.00 Z" fill="#a39688"/><path d="M 0 94.941 L 0 94.94&#10;                L 93.77 145.94&#10;                L 281.3066666666667 94.94 L 281.3066666666667 94.94&#10;                L 458.31 142.41&#10;                L 562.6133333333333 94.94 L 562.6133333333333 94.94&#10;                L 670.61 142.41&#10;                L 843.9200000000001 94.94 L 843.9200000000001 94.94&#10;                L 937.69 180.94&#10;                L 1125.2266666666667 94.94  V 474.70 H 0 V 94.94 Z" fill="#8f8275"/><path d="M 0 189.882 L 0 189.88&#10;                L 93.77 240.88&#10;                L 281.3066666666667 189.88 L 281.3066666666667 189.88&#10;                L 381.31 237.35&#10;                L 562.6133333333333 189.88 L 562.6133333333333 189.88&#10;                L 656.38 237.35&#10;                L 843.9200000000001 189.88 L 843.9200000000001 189.88&#10;                L 937.69 258.88&#10;                L 1125.2266666666667 189.88  V 474.70 H 0 V 189.88 Z" fill="#7b6e62"/><path d="M 0 284.823 L 0 284.82&#10;                L 94.00 361.82&#10;                L 281.3066666666667 284.82 L 281.3066666666667 284.82&#10;                L 404.31 358.82&#10;                L 562.6133333333333 284.82 L 562.6133333333333 284.82&#10;                L 656.38 332.29&#10;                L 843.9200000000001 284.82 L 843.9200000000001 284.82&#10;                L 937.69 341.82&#10;                L 1125.2266666666667 284.82  V 474.70 H 0 V 284.82 Z" fill="#675a4f"/><path d="M 0 379.764 L 0 379.76&#10;                L 93.77 427.23&#10;                L 281.3066666666667 379.76 L 281.3066666666667 379.76&#10;                L 440.31 427.23&#10;                L 562.6133333333333 379.76 L 562.6133333333333 379.76&#10;                L 656.38 461.76&#10;                L 843.9200000000001 379.76 L 843.9200000000001 379.76&#10;                L 943.92 427.23&#10;                L 1125.2266666666667 379.76  V 474.70 H 0 V 379.76 Z" fill="#53463c"/></svg>